<svg xmlns="http://www.w3.org/2000/svg" width="238.187" height="54.323" viewBox="0 0 238.187 54.323">
  <g id="Group_32835" data-name="Group 32835" transform="translate(18965.064 224.901)">
    <path id="Path_36788" data-name="Path 36788" d="M100.747,28.046a2.889,2.889,0,1,1,2.888-2.888,2.888,2.888,0,0,1-2.888,2.888" transform="translate(-18995.246 -236.85)" fill="#fff" fill-rule="evenodd"/>
    <path id="Path_36789" data-name="Path 36789" d="M111.546,38.844a2.889,2.889,0,1,1,2.888,2.891,2.888,2.888,0,0,1-2.888-2.891" transform="translate(-18998.963 -240.568)" fill="#fff" fill-rule="evenodd"/>
    <path id="Path_36790" data-name="Path 36790" d="M106.714,48.461a3.649,3.649,0,0,1-3.647-3.648,6.322,6.322,0,0,0-12.644,0,3.646,3.646,0,1,1-3.647-3.647,6.592,6.592,0,0,0,6.322-6.32,6.592,6.592,0,0,0-6.322-6.323,3.647,3.647,0,1,1,3.647-3.647,6.322,6.322,0,1,0,12.644,0,3.647,3.647,0,1,1,3.647,3.647,6.592,6.592,0,0,0-6.322,6.323,6.592,6.592,0,0,0,6.322,6.32,3.648,3.648,0,0,1,0,7.3" transform="translate(-18991.244 -236.567)" fill="#7fc200" fill-rule="evenodd"/>
    <path id="Path_36791" data-name="Path 36791" d="M100.747,49.644a2.889,2.889,0,1,0,2.888,2.889,2.888,2.888,0,0,0-2.888-2.889" transform="translate(-18995.246 -244.287)" fill="#fff" fill-rule="evenodd"/>
    <path id="Path_36792" data-name="Path 36792" d="M89.948,38.844a2.889,2.889,0,1,0-2.888,2.891,2.888,2.888,0,0,0,2.888-2.891" transform="translate(-18991.525 -240.568)" fill="#fff" fill-rule="evenodd"/>
    <path id="Path_36794" data-name="Path 36794" d="M27.629-12.617,9.489-38.282V-13.1H4.935V-48.2H6.853L24.514-23.928V-48.2h4.553v35.587Zm29.2-12.869h-18.5q0,4.505,2.468,6.926A7.732,7.732,0,0,0,46.4-16.451a9.565,9.565,0,0,0,6.518-2.277l1.917,3.283A8.574,8.574,0,0,1,51.6-13.623a17.5,17.5,0,0,1-6.087,1.006,11.356,11.356,0,0,1-8.22-3.283,12.87,12.87,0,0,1-3.762-9.729,13.719,13.719,0,0,1,3.858-10.185,11.208,11.208,0,0,1,8.172-3.427q5.488,0,8.6,3.091a10.564,10.564,0,0,1,3.019,7.884A10.181,10.181,0,0,1,56.826-25.485ZM45.778-35.406a7.111,7.111,0,0,0-5.1,1.965,7.134,7.134,0,0,0-2.229,4.649H52.656a6.477,6.477,0,0,0-1.725-4.6A6.732,6.732,0,0,0,45.778-35.406Z" transform="translate(-18970 -175.619)" fill="#7fc200"/>
    <path id="Path_36793" data-name="Path 36793" d="M3.29-13.5v-1.2l15.1-29.6H3.53v-4.314H24.978v1.2L9.833-17.812H25.505V-13.5ZM52.065-25.888h-18.5q0,4.505,2.468,6.926a7.732,7.732,0,0,0,5.608,2.109,9.565,9.565,0,0,0,6.518-2.277l1.917,3.283a8.574,8.574,0,0,1-3.235,1.821,17.5,17.5,0,0,1-6.087,1.006,11.356,11.356,0,0,1-8.22-3.283,12.87,12.87,0,0,1-3.762-9.729A13.719,13.719,0,0,1,32.63-36.216,11.208,11.208,0,0,1,40.8-39.643q5.488,0,8.6,3.091a10.564,10.564,0,0,1,3.019,7.884A10.182,10.182,0,0,1,52.065-25.888ZM41.018-35.809a7.111,7.111,0,0,0-5.1,1.965,7.134,7.134,0,0,0-2.229,4.649H47.9a6.477,6.477,0,0,0-1.725-4.6A6.732,6.732,0,0,0,41.018-35.809ZM72.323-13.5v-14.93q0-4.1-1.234-5.739a4.843,4.843,0,0,0-4.134-1.642,6.778,6.778,0,0,0-3.259.935,7.249,7.249,0,0,0-2.612,2.3V-13.5H56.53V-39.164h3.115l1.438,3.307q2.253-3.786,7.357-3.786,8.435,0,8.435,10.257V-13.5ZM95.815-44.292V-13.5H91.022V-44.292H79.855v-4.314h27.631v4.314ZM126-25.888h-18.5q0,4.505,2.468,6.926a7.732,7.732,0,0,0,5.608,2.109,9.565,9.565,0,0,0,6.518-2.277l1.917,3.283a8.574,8.574,0,0,1-3.235,1.821,17.5,17.5,0,0,1-6.087,1.006,11.356,11.356,0,0,1-8.22-3.283,12.87,12.87,0,0,1-3.762-9.729,13.719,13.719,0,0,1,3.858-10.185,11.208,11.208,0,0,1,8.172-3.427q5.488,0,8.6,3.091a10.564,10.564,0,0,1,3.019,7.884A10.181,10.181,0,0,1,126-25.888Zm-11.047-9.921a7.111,7.111,0,0,0-5.1,1.965,7.134,7.134,0,0,0-2.229,4.649h14.211a6.477,6.477,0,0,0-1.725-4.6A6.732,6.732,0,0,0,114.948-35.809Zm32.1,22.311-8.052-12.845-3.978,4.1V-13.5H130.46V-49.684h4.553V-27.23l9.825-11.934h5.32l-8.22,9.753L151.98-13.5Z" transform="translate(-18878.857 -175.217)" fill="#7fc200"/>
    <path id="Path_36795" data-name="Path 36795" d="M-167.509-9.857h1.213a2.269,2.269,0,0,0,1.533-.4,1.82,1.82,0,0,0,.441-1.388,1.653,1.653,0,0,0-.448-1.318,2.511,2.511,0,0,0-1.594-.381h-1.146Zm0,4.94h1.476a2.158,2.158,0,0,0,1.523-.445,1.945,1.945,0,0,0,.465-1.456,2.163,2.163,0,0,0-.5-1.611,2.431,2.431,0,0,0-1.7-.472h-1.274Zm-1.119,1.024V-14.271h2.709a3.021,3.021,0,0,1,2.113.617,2.6,2.6,0,0,1,.657,1.978,2.775,2.775,0,0,1-.354,1.493,1.808,1.808,0,0,1-1.082.772,2.026,2.026,0,0,1,1.335.805,3.017,3.017,0,0,1,.431,1.736,2.968,2.968,0,0,1-.782,2.2,3,3,0,0,1-2.211.778Zm8.27-4.718h2.635v-.209a3.3,3.3,0,0,0-.313-1.614,1.019,1.019,0,0,0-.94-.543,1.125,1.125,0,0,0-1.041.583A3.637,3.637,0,0,0-160.357-8.61Zm2.649,2.1h1.065a3.22,3.22,0,0,1-.63,2.1,2.174,2.174,0,0,1-1.756.728,2.014,2.014,0,0,1-1.85-.977,5.968,5.968,0,0,1-.6-3.026,6.467,6.467,0,0,1,.6-3.178A2.023,2.023,0,0,1-159-11.872a2.033,2.033,0,0,1,1.8.856,4.637,4.637,0,0,1,.59,2.608q0,.276,0,.418t-.01.256l-3.727.007v.344a4.978,4.978,0,0,0,.337,2.123,1.123,1.123,0,0,0,1.072.667,1.036,1.036,0,0,0,.907-.5,2.439,2.439,0,0,0,.334-1.365Zm2.224,5.109v-.984a1.63,1.63,0,0,0,.337.108,1.714,1.714,0,0,0,.337.034.951.951,0,0,0,.758-.324,3.656,3.656,0,0,0,.556-1.254l-2.278-7.825h1.173l1.658,6.255,1.712-6.255h1.112l-2.386,8.1a4.119,4.119,0,0,1-.869,1.793,1.935,1.935,0,0,1-1.4.472,2.023,2.023,0,0,1-.32-.03A3.375,3.375,0,0,1-155.485-1.4Zm6.207-6.362a5.674,5.674,0,0,1,.671-3.1,2.3,2.3,0,0,1,2.052-1.008,2.306,2.306,0,0,1,2.066,1,5.713,5.713,0,0,1,.664,3.107,5.681,5.681,0,0,1-.661,3.1,2.312,2.312,0,0,1-2.069.987,2.307,2.307,0,0,1-2.069-.981A5.724,5.724,0,0,1-149.277-7.767Zm1.159,0a5.943,5.943,0,0,0,.357,2.45,1.244,1.244,0,0,0,1.206.711,1.238,1.238,0,0,0,1.2-.725A5.906,5.906,0,0,0-145-7.767a5.848,5.848,0,0,0-.361-2.436,1.24,1.24,0,0,0-1.2-.711,1.247,1.247,0,0,0-1.2.7A5.842,5.842,0,0,0-148.118-7.767Zm5.729,3.875V-11.65h1.018v.964a1.97,1.97,0,0,1,.768-.849,2.3,2.3,0,0,1,1.18-.283,1.809,1.809,0,0,1,1.459.519,2.817,2.817,0,0,1,.435,1.786v5.621h-1.092v-5.7a1.408,1.408,0,0,0-.27-.944,1.032,1.032,0,0,0-.822-.31,1.505,1.505,0,0,0-1.156.458,1.745,1.745,0,0,0-.428,1.24v5.257Zm10.413-3.936a5.831,5.831,0,0,0-.334-2.366,1.169,1.169,0,0,0-1.136-.667,1.19,1.19,0,0,0-1.126.721,5.185,5.185,0,0,0-.364,2.231,6.288,6.288,0,0,0,.347,2.443,1.151,1.151,0,0,0,1.1.758,1.2,1.2,0,0,0,1.156-.714A5.861,5.861,0,0,0-131.976-7.828Zm1.018,3.936h-1.018v-.977a1.459,1.459,0,0,1-.607.822,1.878,1.878,0,0,1-1.078.31,2,2,0,0,1-1.83-1.1,6.489,6.489,0,0,1-.63-3.185,5.258,5.258,0,0,1,.634-2.814,1.984,1.984,0,0,1,1.766-1,2.089,2.089,0,0,1,1.082.276,1.2,1.2,0,0,1,.59.708v-3.424h1.092Zm5.358,0v-6.875h-1.092v-.883h1.092V-12.7a1.567,1.567,0,0,1,.441-1.233,2.064,2.064,0,0,1,1.392-.391q.094,0,.2.01a2.633,2.633,0,0,1,.263.044l-.007.964q-.115-.02-.219-.03t-.219-.01a.8.8,0,0,0-.563.158.721.721,0,0,0-.165.536v1h1.173v.883h-1.173v6.875Zm7.063,0V-4.9a1.816,1.816,0,0,1-.731.9,2.208,2.208,0,0,1-1.2.317,1.851,1.851,0,0,1-1.415-.479,2.188,2.188,0,0,1-.445-1.523V-11.65h1.132v5.992a1.062,1.062,0,0,0,.239.741.861.861,0,0,0,.671.263,1.56,1.56,0,0,0,1.22-.485,1.96,1.96,0,0,0,.438-1.361V-11.65h1.1v7.758Zm3.963-1.6a.846.846,0,0,0,.175.637,1.456,1.456,0,0,0,.836.152q.088,0,.145,0a.943.943,0,0,0,.1-.01l.007.95q-.1.007-.27.013-.411.02-.532.02a1.779,1.779,0,0,1-1.142-.307,1.128,1.128,0,0,1-.374-.927v-5.783h-1.078v-.9h1.078v-2.069h1.058v2.069h1.26v.9h-1.26Zm5.924,1.6V-4.9a1.816,1.816,0,0,1-.731.9,2.208,2.208,0,0,1-1.2.317A1.851,1.851,0,0,1-112-4.161a2.188,2.188,0,0,1-.445-1.523V-11.65h1.132v5.992a1.062,1.062,0,0,0,.239.741.861.861,0,0,0,.671.263,1.56,1.56,0,0,0,1.22-.485,1.96,1.96,0,0,0,.438-1.361V-11.65h1.1v7.758Zm2.723,0V-11.65h1v1.267a2.3,2.3,0,0,1,.711-1.065,1.683,1.683,0,0,1,1.088-.384q.182,0,.28.007t.185.02v1.159a.753.753,0,0,0-.192-.071,1.058,1.058,0,0,0-.233-.024,1.607,1.607,0,0,0-1.3.553,2.327,2.327,0,0,0-.465,1.543v4.752Zm4.913-4.718h2.635v-.209a3.3,3.3,0,0,0-.313-1.614,1.019,1.019,0,0,0-.94-.543,1.125,1.125,0,0,0-1.041.583A3.637,3.637,0,0,0-101.013-8.61Zm2.649,2.1H-97.3a3.22,3.22,0,0,1-.63,2.1,2.174,2.174,0,0,1-1.756.728,2.014,2.014,0,0,1-1.85-.977,5.968,5.968,0,0,1-.6-3.026,6.467,6.467,0,0,1,.6-3.178,2.023,2.023,0,0,1,1.877-1.008,2.033,2.033,0,0,1,1.8.856,4.637,4.637,0,0,1,.59,2.608q0,.276,0,.418t-.01.256l-3.727.007v.344a4.978,4.978,0,0,0,.337,2.123,1.123,1.123,0,0,0,1.072.667,1.036,1.036,0,0,0,.907-.5,2.439,2.439,0,0,0,.334-1.365Zm5.756.29h1.078a.184.184,0,0,1-.007.04,1.807,1.807,0,0,0-.02.222A1.242,1.242,0,0,0-91.2-5a1.5,1.5,0,0,0,1.048.33A1.389,1.389,0,0,0-89.16-5a1.194,1.194,0,0,0,.361-.917q0-.917-1.409-1.4a.11.11,0,0,0-.027-.007,4.5,4.5,0,0,1-1.827-.977,2.1,2.1,0,0,1-.418-1.409,2.09,2.09,0,0,1,.6-1.587,2.308,2.308,0,0,1,1.661-.57,2.385,2.385,0,0,1,1.705.546,2.123,2.123,0,0,1,.573,1.611v.108h-1.031a1.644,1.644,0,0,0-.317-1.021,1.12,1.12,0,0,0-.883-.32,1.349,1.349,0,0,0-.954.3,1.166,1.166,0,0,0-.32.893,1.252,1.252,0,0,0,.084.472.8.8,0,0,0,.246.337,3.7,3.7,0,0,0,1.179.539q.472.148.728.249a2.465,2.465,0,0,1,1.146.785,2.1,2.1,0,0,1,.344,1.257,2.356,2.356,0,0,1-.671,1.8,2.676,2.676,0,0,1-1.911.634,2.288,2.288,0,0,1-1.722-.6,2.459,2.459,0,0,1-.583-1.776Zm6.113-1.543a5.674,5.674,0,0,1,.671-3.1,2.3,2.3,0,0,1,2.052-1.008,2.306,2.306,0,0,1,2.066,1,5.713,5.713,0,0,1,.664,3.107,5.681,5.681,0,0,1-.661,3.1,2.312,2.312,0,0,1-2.069.987,2.307,2.307,0,0,1-2.069-.981A5.724,5.724,0,0,1-86.495-7.767Zm1.159,0a5.944,5.944,0,0,0,.357,2.45,1.244,1.244,0,0,0,1.206.711,1.238,1.238,0,0,0,1.2-.725,5.906,5.906,0,0,0,.361-2.436,5.848,5.848,0,0,0-.361-2.436,1.24,1.24,0,0,0-1.2-.711,1.247,1.247,0,0,0-1.2.7A5.842,5.842,0,0,0-85.335-7.767Zm5.715,3.875V-14.271h1.078V-3.892Zm6.484,0V-4.9a1.816,1.816,0,0,1-.731.9,2.208,2.208,0,0,1-1.2.317,1.851,1.851,0,0,1-1.415-.479,2.188,2.188,0,0,1-.445-1.523V-11.65H-75.8v5.992a1.062,1.062,0,0,0,.239.741.861.861,0,0,0,.671.263,1.56,1.56,0,0,0,1.22-.485A1.96,1.96,0,0,0-73.231-6.5V-11.65h1.1v7.758Zm3.963-1.6A.846.846,0,0,0-69-4.859a1.456,1.456,0,0,0,.836.152q.088,0,.145,0a.943.943,0,0,0,.1-.01l.007.95q-.1.007-.27.013-.411.02-.532.02a1.779,1.779,0,0,1-1.142-.307,1.128,1.128,0,0,1-.374-.927v-5.783H-71.31v-.9h1.078v-2.069h1.058v2.069h1.26v.9h-1.26Zm2.143-7.367v-1.409h1.119v1.409Zm0,8.971V-11.65h1.119v7.758Zm2.541-3.875a5.674,5.674,0,0,1,.671-3.1,2.3,2.3,0,0,1,2.052-1.008,2.306,2.306,0,0,1,2.066,1,5.713,5.713,0,0,1,.664,3.107,5.681,5.681,0,0,1-.661,3.1,2.312,2.312,0,0,1-2.069.987,2.307,2.307,0,0,1-2.069-.981A5.724,5.724,0,0,1-64.489-7.767Zm1.159,0a5.944,5.944,0,0,0,.357,2.45,1.244,1.244,0,0,0,1.206.711,1.238,1.238,0,0,0,1.2-.725,5.906,5.906,0,0,0,.361-2.436A5.848,5.848,0,0,0-60.57-10.2a1.24,1.24,0,0,0-1.2-.711,1.247,1.247,0,0,0-1.2.7A5.842,5.842,0,0,0-63.33-7.767ZM-57.6-3.892V-11.65h1.018v.964a1.97,1.97,0,0,1,.768-.849,2.3,2.3,0,0,1,1.179-.283,1.809,1.809,0,0,1,1.459.519,2.817,2.817,0,0,1,.435,1.786v5.621h-1.092v-5.7a1.408,1.408,0,0,0-.27-.944,1.032,1.032,0,0,0-.822-.31,1.505,1.505,0,0,0-1.156.458,1.745,1.745,0,0,0-.428,1.24v5.257Zm6.282-2.332h1.078a.184.184,0,0,1-.007.04,1.806,1.806,0,0,0-.02.222A1.242,1.242,0,0,0-49.907-5a1.5,1.5,0,0,0,1.048.33A1.389,1.389,0,0,0-47.872-5a1.194,1.194,0,0,0,.361-.917q0-.917-1.409-1.4a.11.11,0,0,0-.027-.007,4.5,4.5,0,0,1-1.827-.977,2.1,2.1,0,0,1-.418-1.409,2.09,2.09,0,0,1,.6-1.587,2.308,2.308,0,0,1,1.661-.57,2.385,2.385,0,0,1,1.705.546,2.123,2.123,0,0,1,.573,1.611v.108h-1.031A1.644,1.644,0,0,0-48-10.628a1.12,1.12,0,0,0-.883-.32,1.349,1.349,0,0,0-.954.3,1.166,1.166,0,0,0-.32.893,1.252,1.252,0,0,0,.084.472.8.8,0,0,0,.246.337,3.7,3.7,0,0,0,1.179.539q.472.148.728.249a2.465,2.465,0,0,1,1.146.785,2.1,2.1,0,0,1,.344,1.257,2.356,2.356,0,0,1-.671,1.8,2.676,2.676,0,0,1-1.911.634,2.288,2.288,0,0,1-1.722-.6,2.459,2.459,0,0,1-.583-1.776Z" transform="translate(-18680.551 -169.295)" fill="#fff"/>
  </g>
</svg>
