<svg xmlns="http://www.w3.org/2000/svg" xmlns:xlink="http://www.w3.org/1999/xlink" width="390" height="50" viewBox="0 0 390 50">
  <defs>
    <clipPath id="clip-path">
      <rect id="Rectangle_3679" data-name="Rectangle 3679" width="390" height="50" fill="#fff" stroke="#707070" stroke-width="1"/>
    </clipPath>
  </defs>
  <g id="Mask_Group_7259" data-name="Mask Group 7259" clip-path="url(#clip-path)">
    <path id="Union_11" data-name="Union 11" d="M447.759,0,414.971,32.787,382.184,0l-.76.76,33.167,33.167.38-.38.38.38L448.519.76ZM431.175,0l-16.2,16.2L398.768,0l-.76.76,16.584,16.584.38-.38.38.38L431.935.76ZM365.6,0l-.38.38L364.84,0,332.053,32.787l-16.2-16.2-.76.76,16.2,16.2L315.469,49.371l-16.2-16.2-.76.76,32.787,32.787L315.469,82.538,266.478,33.547l16.2-16.2-.38-.38.38-.38L266.1,0l-.38.38-.38-.38-16.2,16.2L232.931,0l-.38.38-.38-.38L182.8,49.371l-16.2-16.2-.76.76L182.42,50.511l.38-.38.38.38,16.2-16.2,15.824,15.824L199,66.335l.76.76L265.718,1.14l15.824,15.824L232.171,66.335l.76.76,32.787-32.787,32.407,32.407-49.371,49.371.38.38-.38.38,16.584,16.584.38-.38.38.38,16.2-16.2,15.824,15.824-16.2,16.2.38.38-.38.38,16.2,16.2-16.2,16.2.76.76,33.167-33.167-.76-.76-16.2,16.2-15.824-15.824,16.2-16.2-.38-.38.38-.38L266.478,99.882,282.3,84.059l49.371,49.371.76-.76-16.2-16.2,32.407-32.407L364.46,99.882l-16.2,16.2.76.76L381.8,84.059l15.824,15.824L364.84,132.67l.76.76,16.2-16.2,15.824,15.824-16.2,16.2.76.76,16.584-16.584-.38-.38.38-.38-16.2-16.2,49.371-49.371-.38-.38.38-.38-16.2-16.2,15.824-15.824,16.2,16.2.76-.76-16.2-16.2,16.2-16.2-.76-.76L414.971,49.371ZM349.4,16.964,365.22,1.14l48.991,48.991L398.388,65.955l-16.2-16.2-.38.38-.38-.38L364.84,66.335l.38.38-.38.38,16.2,16.2L365.22,99.122,332.813,66.715,365.6,33.927l-.38-.38.38-.38Zm-133.049.38,16.2-16.2,15.824,15.824L215.967,49.371,200.144,33.547Zm116.466,16.2,15.824-15.824L364.46,33.547,348.637,49.371ZM316.229,50.131l15.824-15.824,15.824,15.824L332.053,65.955Zm82.538,16.964,16.2-16.2,15.824,15.824L398.388,99.122,382.564,83.3Zm-32.787-.38L381.8,50.891l15.824,15.824L381.8,82.538ZM316.229,83.3l15.824-15.824L347.877,83.3,332.053,99.122Zm-33.167,0,15.824-15.824,32.407,32.407-15.824,15.824Zm-33.167,33.167,15.824-15.824,15.824,15.824L265.718,132.29ZM348.257,0l-16.2,16.2L315.849,0l-.38.38-.38-.38-16.2,16.2L282.682,0l-.76.76,16.2,16.2-16.2,16.2.38.38-.38.38,33.167,33.167.76-.76L283.062,33.547l15.824-15.824,16.2,16.2.76-.76-16.2-16.2L315.469,1.14l16.2,16.2.38-.38.38.38L349.017.76ZM215.587,0l-16.2,16.2L183.18,0l-.76.76,16.2,16.2L182.8,32.787,150.013,0l-.76.76,16.2,16.2-16.2,16.2.38.38-.38.38,16.2,16.2-16.2,16.2.76.76,16.2-16.2L182.04,66.715,149.633,99.122l-16.2-16.2-.38.38-.38-.38-16.2,16.2-16.2-16.2-.38.38-.38-.38L66.715,115.706,50.891,99.882l16.2-16.2-.76-.76-16.2,16.2L17.344,66.335l-.38.38-.38-.38L0,82.919l.38.38-.38.38,16.584,16.584.38-.38.38.38,16.2-16.2L49.371,99.882,0,149.253l.76.76,16.2-16.2,16.2,16.2.38-.38.38.38L83.3,100.642l15.824,15.824L66.335,149.253l.76.76,16.2-16.2,15.824,15.824L66.715,182.041l-16.2-16.2-.38.38-.38-.38-16.2,16.2-16.2-16.2-.76.76,49.751,49.751.76-.76L34.307,182.8l15.824-15.824,65.955,65.955.38-.38.38.38,16.584-16.584-.76-.76-16.2,16.2-15.824-15.824,32.407-32.407,49.371,49.371.76-.76-32.787-32.787,15.824-15.824L199,216.348l.76-.76L166.977,182.8,182.8,166.977l49.371,49.371.38-.38.38.38,16.2-16.2,16.2,16.2.38-.38.38.38,32.787-32.787,48.991,48.991-16.2,16.2.76.76,16.2-16.2,16.2,16.2.38-.38.38.38,16.2-16.2,16.2,16.2.38-.38.38.38,16.2-16.2,16.2,16.2.38-.38.38.38,16.584-16.584-.76-.76-16.2,16.2-16.2-16.2-.38.38-.38-.38-16.2,16.2-15.824-15.824,32.407-32.407,16.2,16.2.76-.76-16.2-16.2L448.519,166.6l-.76-.76-49.371,49.371-16.2-16.2-.76.76,16.2,16.2L365.22,248.376l-48.991-48.991,15.824-15.824,32.787,32.787.76-.76-16.2-16.2L381.8,166.977l16.2,16.2.76-.76-16.2-16.2,15.824-15.824,16.2,16.2.38-.38.38.38,33.167-33.167-.38-.38.38-.38-16.584-16.584-.38.38-.38-.38-16.2,16.2-15.824-15.824,49.371-49.371-.38-.38.38-.38L431.935,49.751l-.76.76,16.2,16.2-49.371,49.371.38.38-.38.38,16.2,16.2L381.8,165.457,365.98,149.633l16.2-16.2-.76-.76-16.2,16.2L349.4,133.05l32.787-32.787-.76-.76L348.637,132.29l-15.824-15.824,16.2-16.2-.76-.76-16.584,16.584.38.38-.38.38,16.2,16.2-15.824,15.824L282.682,99.5l-.76.76,32.787,32.787-16.2,16.2.76.76,16.2-16.2,15.824,15.824L282.3,198.624,266.478,182.8l16.2-16.2-.38-.38.38-.38-16.2-16.2,16.2-16.2-.76-.76-16.2,16.2-32.407-32.407,49.371-49.371-.38-.38.38-.38L266.1,49.751l-.38.38-.38-.38L232.551,82.538,216.728,66.715,266.1,17.344l-.76-.76L199.384,82.538,183.56,66.715l16.2-16.2-.76-.76-16.2,16.2L150.393,33.547l15.824-15.824,16.2,16.2.38-.38.38.38L216.347.76Zm33.927,67.095,16.2-16.2,15.824,15.824L249.135,99.122,233.311,83.3ZM200.144,83.3l15.824-15.824,32.407,32.407-16.2,16.2.38.38-.38.38,16.2,16.2-15.824,15.824-32.787-32.787-.76.76,16.2,16.2-15.824,15.824-32.407-32.407,16.2-16.2-.76-.76-16.2,16.2L150.393,99.882,182.8,67.475l32.787,32.787.76-.76Zm-199,0L16.964,67.475,32.787,83.3,16.964,99.122ZM117.226,99.882l15.824-15.824,32.407,32.407L149.633,132.29Zm-33.167,0L99.882,84.059l15.824,15.824L99.882,115.706Zm16.2,16.964,16.2-16.2,15.824,15.824L99.882,148.873,84.058,133.05Zm-66.335,0,16.2-16.2,15.824,15.824L33.547,148.873,17.724,133.05ZM415.351,133.43l16.2-16.2,15.824,15.824-32.407,32.407-15.824-15.824Zm-264.958-.38,15.824-15.824,82.158,82.158-15.824,15.824Zm-33.167,0,15.824-15.824,32.407,32.407-16.2,16.2.76.76,16.2-16.2,15.824,15.824-32.407,32.407-32.407-32.407,16.2-16.2-.38-.38.38-.38Zm215.587,16.584,15.824-15.824,15.824,15.824-15.824,15.824Zm-99.5,0,15.824-15.824,15.824,15.824-15.824,15.824Zm-33.167,0,15.824-15.824L248.755,166.6l.38-.38.38.38,16.2-16.2,15.824,15.824-16.2,16.2.38.38-.38.38,16.2,16.2-15.824,15.824Zm-99.882.38,16.2-16.2,15.824,15.824L99.5,182.421l.38.38-.38.38,16.2,16.2L99.882,215.208,67.475,182.8Zm249.135,16.2,15.824-15.824,15.824,15.824L365.22,182.041Zm-33.167,0,15.824-15.824L364.46,182.8l-15.824,15.824ZM299.646,182.8l15.824-15.824L331.293,182.8l-15.824,15.824Zm-199,0,15.824-15.824L132.289,182.8l-15.824,15.824ZM166.6,0l-.76.76L182.42,17.344l.76-.76ZM133.429,0l-.76.76,16.2,16.2L133.049,32.787,100.262,0l-.38.38L99.5,0,82.918,16.584l.76.76,16.2-16.2,15.824,15.824L82.918,49.751l.76.76,32.787-32.787,32.407,32.407L133.049,65.955l-16.2-16.2-.38.38-.38-.38L83.3,82.538,50.891,50.131l16.2-16.2-.38-.38.38-.38L50.511,16.584l-.38.38-.38-.38-16.2,16.2L.76,0,0,.76,32.787,33.547,16.964,49.371.76,33.167l-.76.76,16.2,16.2L0,66.335l.76.76,16.2-16.2L49.751,83.679l.38-.38.38.38,16.2-16.2L82.538,83.3l-16.2,16.2.76.76L99.882,67.475l16.2,16.2.38-.38.38.38,16.2-16.2,16.2,16.2.38-.38.38.38L166.6,67.095l-.76-.76-16.2,16.2L133.809,66.715l16.2-16.2-.38-.38.38-.38-16.2-16.2,16.2-16.2-.38-.38.38-.38Zm-99.5,33.927,16.2-16.2L65.955,33.547,33.547,65.955,17.724,50.131Zm66.715,32.787,15.824-15.824,15.824,15.824L116.466,82.538Zm-66.335,0L50.131,50.891,65.955,66.715,50.131,82.538ZM116.846,0l-.76.76,16.584,16.584.76-.76ZM82.918,0l-16.2,16.2L50.511,0l-.38.38L49.751,0l-16.2,16.2L17.344,0l-.76.76L33.167,17.344l.38-.38.38.38,16.2-16.2L82.538,33.547l-16.2,16.2.38.38-.38.38L82.918,67.095l.38-.38.38.38,32.787-32.787,16.2,16.2.76-.76L116.846,33.167l-.38.38-.38-.38L83.3,65.955,67.475,50.131l32.787-32.787-.76-.76-16.2,16.2L67.475,16.964,83.678.76ZM365.6,16.584l-.76.76,16.2,16.2L348.257,66.335l.38.38-.38.38L364.84,83.679l.76-.76-16.2-16.2L381.8,34.307l16.2,16.2.76-.76Zm-133.429,0L215.587,33.167l.76.76,16.584-16.584ZM.76,16.584l-.76.76L16.584,33.927l.76-.76ZM49.751,33.167,33.167,49.751l.76.76L50.511,33.927Zm364.84,33.167L398.008,82.919l.76.76,16.584-16.584Zm-149.253,0L248.755,82.919l.76.76L266.1,67.095Zm182.42,16.584-33.167,33.167.76.76,16.2-16.2,16.2,16.2.76-.76-16.2-16.2,16.2-16.2Zm-148.493,0-.76.76,16.584,16.584.76-.76Zm-82.918,0-.76.76,16.2,16.2-15.824,15.824L183.18,82.919l-.38.38-.38-.38L165.836,99.5l.76.76,16.2-16.2,15.824,15.824-16.2,16.2.38.38-.38.38L199,133.43l.76-.76-16.2-16.2,15.824-15.824,32.787,32.787.76-.76-16.2-16.2,16.2-16.2-.38-.38.38-.38ZM133.429,99.5l-.76.76,16.584,16.584.76-.76Zm-100.262,0-16.2,16.2L.76,99.5l-.76.76,16.2,16.2L0,132.67l.76.76,33.167-33.167Zm82.918,16.584L99.5,132.67l.76.76,16.584-16.584Zm-33.167,0L33.547,165.457l-16.2-16.2-.38.38-.38-.38L0,165.837l.38.38L0,166.6l32.787,32.787L16.964,215.208.76,199l-.76.76,16.2,16.2L0,232.172l.76.76,32.787-32.787,32.407,32.407-16.2,16.2.76.76,16.2-16.2,16.2,16.2.76-.76-16.2-16.2L83.3,216.728l32.787,32.787.38-.38.38.38,32.787-32.787,15.824,15.824-16.2,16.2.76.76,16.2-16.2,16.2,16.2.38-.38.38.38,16.2-16.2,16.2,16.2.38-.38.38.38,32.787-32.787,16.2,16.2.38-.38.38.38,16.2-16.2,15.824,15.824-16.2,16.2.76.76,16.2-16.2,16.2,16.2.38-.38.38.38,16.584-16.584-.38-.38.38-.38L299.266,199l-.38.38-.38-.38-32.787,32.787-16.2-16.2-.38.38-.38-.38-16.2,16.2L183.18,182.421l-.76.76,32.787,32.787-15.824,15.824L166.6,199l-.76.76,32.787,32.787L182.8,248.376,133.429,199l-.38.38-.38-.38-16.584,16.584.76.76,16.2-16.2,15.824,15.824-32.407,32.407L50.511,182.421l-.76.76,32.787,32.787L66.715,231.792,1.14,166.217l15.824-15.824,16.2,16.2.38-.38.38.38,16.2-16.2,16.2,16.2.38-.38.38.38,16.584-16.584-.76-.76-16.2,16.2L50.891,149.633l32.787-32.787Zm200.144,99.882,15.824-15.824,15.824,15.824-15.824,15.824Zm16.584,16.584,15.824-15.824,15.824,15.824-15.824,15.824Zm-99.5,0,15.824-15.824,15.824,15.824-15.824,15.824ZM49.751,116.086,33.167,132.67l.76.76,16.584-16.584ZM431.175,132.67l-16.584,16.584.76.76,16.584-16.584Zm-264.578,0-.76.76,66.335,66.335.76-.76Zm-33.167,0-.76.76,16.2,16.2-16.2,16.2.38.38-.38.38,16.584,16.584.38-.38.38.38L166.6,166.6l-.76-.76-16.2,16.2-15.824-15.824,16.2-16.2-.38-.38.38-.38Zm314.329,16.584-32.787,32.787-16.2-16.2-.76.76,16.2,16.2-15.824,15.824-16.2-16.2-.38.38-.38-.38L364.84,199l.38.38-.38.38,16.2,16.2L365.22,231.792,332.433,199l-.76.76,33.167,33.167.38-.38.38.38,16.584-16.584-.38-.38.38-.38-16.2-16.2L381.8,183.561l16.2,16.2.38-.38.38.38,49.751-49.751Zm-231.411,0-.76.76,49.751,49.751.76-.76-16.2-16.2,16.2-16.2-.76-.76-16.2,16.2Zm-100.262,0L82.918,182.421l.38.38-.38.38L99.5,199.765l.76-.76-16.2-16.2,32.787-32.787Zm216.347,16.584-.76.76,16.584,16.584.76-.76Zm115.326,16.584L431.175,199l.38.38-.38.38,16.2,16.2-15.824,15.824-16.2-16.2-.38.38-.38-.38-16.584,16.584.76.76,16.2-16.2,16.2,16.2.38-.38.38.38,16.584-16.584-.38-.38.38-.38-16.2-16.2,16.2-16.2Zm-447,0-.76.76,16.584,16.584.76-.76Zm33.167,33.167-.38.38-.38-.38L0,248.756l.76.76,16.2-16.2,16.2,16.2.38-.38.38.38,16.584-16.584-.38-.38.38-.38Zm-16.2,16.964,15.824-15.824,15.824,15.824L33.547,248.376Zm264.2-.38-16.2,16.2-16.2-16.2-.38.38-.38-.38-16.584,16.584.76.76,16.2-16.2,16.2,16.2.38-.38.38.38,16.584-16.584Zm-132.669,0-16.584,16.584.76.76,16.584-16.584Zm-65.575,0-.76.76L99.5,249.516l.76-.76Z" transform="translate(-58.519)" fill="#7fc200"/>
  </g>
</svg>
