<svg xmlns="http://www.w3.org/2000/svg" width="32.689" height="48.002" viewBox="0 0 32.689 48.002">
  <g id="_3d" data-name="3d" transform="translate(0.001)">
    <path id="Path_36806" data-name="Path 36806" d="M114.3,304.3a4.521,4.521,0,0,0-7-2.175l-6.881,5.161a4.113,4.113,0,0,0-3.939-5.21H91.707a7.148,7.148,0,0,0-6.789,4.893l-1.589,4.768L81.969,313.1a1.031,1.031,0,0,0,0,1.458l6.125,6.125a1.031,1.031,0,0,0,1.464-.005l2.817-2.857,10.372-1.439a1.032,1.032,0,0,0,.588-.292l10.719-10.719A1.032,1.032,0,0,0,114.3,304.3Zm-12.178,10.084-10.376,1.44a1.031,1.031,0,0,0-.593.3l-2.333,2.367-4.662-4.662.8-.8a1.032,1.032,0,0,0,.249-.4l1.666-5a5.087,5.087,0,0,1,4.833-3.483H96.48a2.031,2.031,0,0,1,0,4.063H93.417a1.031,1.031,0,0,0,0,2.063h5.1a4.12,4.12,0,0,0,2.456-.819l7.56-5.67a2.458,2.458,0,0,1,3.547.644Z" transform="translate(-81.668 -272.981)" fill="#051c2c"/>
    <path id="Path_36807" data-name="Path 36807" d="M176.734,5.961a1.02,1.02,0,0,0-.114-.076L166.666.138a1.031,1.031,0,0,0-1.031,0l-9.954,5.746a1.03,1.03,0,0,0-.516.893V18.272a1.031,1.031,0,0,0,.516.893l9.954,5.746a1.04,1.04,0,0,0,1.031,0l9.953-5.746a1.031,1.031,0,0,0,.516-.893V6.778A1.031,1.031,0,0,0,176.734,5.961Zm-2.692.817-7.891,4.556L158.26,6.778l7.891-4.556ZM157.229,8.564l7.891,4.556v9.112l-7.891-4.556Zm9.954,13.668V13.12l7.891-4.556v9.112Z" transform="translate(-148.276 0)" fill="#7fc200"/>
  </g>
</svg>
