<svg id="login" xmlns="http://www.w3.org/2000/svg" width="15.738" height="15.738" viewBox="0 0 15.738 15.738">
  <path id="Path_32630" data-name="Path 32630" d="M96.355,11.03a6.376,6.376,0,0,1,2.018-1.365,3.783,3.783,0,1,1,4.989,0,6.389,6.389,0,0,1,3.4,3.413,7.869,7.869,0,1,0-11.781,0A6.366,6.366,0,0,1,96.355,11.03Zm0,0" transform="translate(-93)" fill="#fff"/>
  <path id="Path_32631" data-name="Path 32631" d="M157.918,223.287a7.852,7.852,0,0,0,9.47,0,4.936,4.936,0,0,0-9.47,0Zm0,0" transform="translate(-154.784 -209.137)" fill="#fff"/>
  <path id="Path_32632" data-name="Path 32632" d="M212.3,95.335a2.335,2.335,0,1,0-2.335,2.335A2.338,2.338,0,0,0,212.3,95.335Zm0,0" transform="translate(-202.095 -88.51)" fill="#fff"/>
</svg>
