<svg xmlns="http://www.w3.org/2000/svg" width="60.002" height="60.002" viewBox="0 0 60.002 60.002">
  <g id="Group_33071" data-name="Group 33071" transform="translate(-1200 -1145.999)">
    <g id="rocket" transform="translate(1198.039 1144.038)">
      <path id="Union_12" data-name="Union 12" d="M32.764,59.937a.858.858,0,0,1-.679-.409L25.51,48.771A22.567,22.567,0,0,1,11.231,34.492L.476,27.919a.856.856,0,0,1-.086-1.4L7.2,21.14a14.153,14.153,0,0,1,10.532-2.911l3.822.5,2.425-3.46a38.919,38.919,0,0,1,18.2-13.013.854.854,0,0,1,.251-.09l.025,0A41.924,41.924,0,0,1,59.085.127a.857.857,0,0,1,.788.788,41.967,41.967,0,0,1-2.03,16.622.854.854,0,0,1-.1.284A38.847,38.847,0,0,1,44.765,36l-.031.023-3.461,2.425.5,3.826a14.15,14.15,0,0,1-2.911,10.532l-5.376,6.809a.857.857,0,0,1-.669.322Zm.14-2.353,4.614-5.844a12.434,12.434,0,0,0,2.555-9.248l-.382-2.937L27.224,48.292Zm-7.546-41.3L12.9,34.058A20.841,20.841,0,0,0,25.945,47.1l17.79-12.469a37.08,37.08,0,0,0,12.117-16.6,18.9,18.9,0,0,1-8.869-5.015,18.9,18.9,0,0,1-5.015-8.871A37.07,37.07,0,0,0,25.358,16.283Zm-17.094,6.2L2.418,27.1l9.289,5.677,8.738-12.468-2.933-.381a12.436,12.436,0,0,0-9.248,2.555ZM48.194,11.808a17.186,17.186,0,0,0,8.218,4.6,40.242,40.242,0,0,0,1.8-14.62A40.256,40.256,0,0,0,43.6,3.589,17.184,17.184,0,0,0,48.194,11.808ZM37.438,29.27a6.69,6.69,0,1,1,.01,0Zm0-11.7a4.974,4.974,0,1,0,.01,0Z" transform="translate(1.961 1.962)" fill="#051c2c"/>
    </g>
    <path id="Union_16" data-name="Union 16" d="M19460.566,19.33a.851.851,0,0,1,.186-.933l7.643-7.647a.86.86,0,0,1,1.211,0,.851.851,0,0,1,0,1.212l-7.646,7.647a.839.839,0,0,1-.605.249A.851.851,0,0,1,19460.566,19.33Zm-9.982-.518a.849.849,0,0,1,.186-.933L19459,9.65a.856.856,0,0,1,1.213,1.207l-8.234,8.233a.842.842,0,0,1-.605.249A.859.859,0,0,1,19450.584,18.812Zm-.518-9.983a.851.851,0,0,1,.186-.933L19457.9.249a.855.855,0,0,1,1.207,1.212l-7.646,7.647a.84.84,0,0,1-.6.249A.848.848,0,0,1,19450.066,8.83Z" transform="translate(-18250 1186.143)" fill="#7fc200"/>
  </g>
</svg>
