<svg xmlns="http://www.w3.org/2000/svg" width="50.835" height="64" viewBox="0 0 50.835 64">
  <g id="Group_33072" data-name="Group 33072" transform="translate(-1204.999 -1314)">
    <g id="funding" transform="translate(1152.336 1314)">
      <path id="Union_15" data-name="Union 15" d="M8.317,64a2.583,2.583,0,0,1-2.342-1.5L.234,49.981A2.578,2.578,0,0,1,1.5,46.566L4.39,45.241a2.481,2.481,0,0,1,1.045-.229,2.519,2.519,0,0,1,2.211,1.321A7.793,7.793,0,0,0,8.725,45.7a24.9,24.9,0,0,1,4.129-2.349A12.368,12.368,0,0,1,16.6,42.2a13.484,13.484,0,0,1,3.982-22.792l-1.806-.725a3.486,3.486,0,0,1-2.372-2.979L5.755,18.859a5.519,5.519,0,0,1-2.011.4A3.6,3.6,0,0,1,.361,17.1c-1.186-2.695.819-4.6,2.189-5.3L18.1,4.926a7.563,7.563,0,0,1,3.464-.818,8.5,8.5,0,0,1,2.735.458l4.481,1.788a7.928,7.928,0,0,0,2.941.521,11.847,11.847,0,0,0,3.612-.6l2.237-.85-.246-.536A2.513,2.513,0,0,1,38.556,1.56L41.444.235A2.575,2.575,0,0,1,44.86,1.5L50.6,14.019a2.578,2.578,0,0,1-1.267,3.415l-2.888,1.325a2.487,2.487,0,0,1-1.045.229,2.517,2.517,0,0,1-2.211-1.321,7.853,7.853,0,0,0-1.079.636,24.866,24.866,0,0,1-4.129,2.349A12.368,12.368,0,0,1,34.238,21.8a13.409,13.409,0,0,1,4.453,7.821.938.938,0,1,1-1.846.329,11.561,11.561,0,0,0-5.578-7.975c-.769.014-1.654.019-2.7.022h-.018a9.152,9.152,0,0,1-3.457-.789c-.472-.176-1.015-.389-1.656-.645A11.612,11.612,0,0,0,19.568,42.03l.367-.006c.68-.009,1.448-.013,2.33-.016h.072a7.453,7.453,0,0,1,2.264.39c.7.219,1.567.551,2.8,1.041A11.571,11.571,0,0,0,36.854,34a.937.937,0,0,1,1.847.32,13.443,13.443,0,0,1-8.44,10.276l1.8.721a3.485,3.485,0,0,1,2.371,2.979l10.651-3.151c2.35-.921,4.432-.253,5.394,1.755,1.186,2.7-.819,4.6-2.189,5.3l-6.106,2.7a.938.938,0,0,1-.759-1.715L47.477,50.5c.305-.158,2.03-1.147,1.292-2.825-.654-1.365-2.02-1.179-3.049-.778L34.07,50.354a3.068,3.068,0,0,1-2.74,1.776,3.569,3.569,0,0,1-.847-.106c-2.062-.5-6.945-1.681-6.945-1.681l.439-1.823S28.867,49.7,30.93,50.2a1.221,1.221,0,0,0,1.543-.885q.007-.022.014-.044a1.707,1.707,0,0,0-1.126-2.219l-2.955-1.186-1.463-.589h0c-1.584-.635-2.508-.985-3.189-1.176a5.464,5.464,0,0,0-1.48-.219h-.018l-1.317.006c-.585,0-1.112.01-1.589.021h-.039a11.672,11.672,0,0,0-5.689,1.15A23.024,23.024,0,0,0,9.8,47.231a9.664,9.664,0,0,1-1.37.805l4.051,8.832,2.4-.91a11.654,11.654,0,0,1,7.871-.054l4.44,1.773a6.194,6.194,0,0,0,4.738-.294l5.487-2.429a.938.938,0,1,1,.758,1.715l-5.436,2.4a7.5,7.5,0,0,1-3.445.816,8.656,8.656,0,0,1-2.755-.456l-4.481-1.788a9.9,9.9,0,0,0-6.552.08l-2.237.85.246.537a2.513,2.513,0,0,1-1.236,3.327L9.39,63.765A2.554,2.554,0,0,1,8.318,64ZM5.171,46.946,2.283,48.271a.7.7,0,0,0-.345.929L7.68,61.716a.7.7,0,0,0,.929.346L11.5,60.736a.636.636,0,0,0,.312-.841l-.663-1.446v0L6.324,47.938l-.007-.016-.3-.663a.638.638,0,0,0-.578-.371A.629.629,0,0,0,5.171,46.946ZM28.58,20.117c.514,0,.986,0,1.422-.007.543,0,1.035-.01,1.483-.02h.038a11.673,11.673,0,0,0,5.691-1.15,23.024,23.024,0,0,0,3.817-2.171,9.582,9.582,0,0,1,1.371-.8L40.079,10.9,38.351,7.132l-2.4.91a13.6,13.6,0,0,1-4.235.709A9.777,9.777,0,0,1,28.083,8.1l-4.44-1.773a6.579,6.579,0,0,0-2.082-.34,5.763,5.763,0,0,0-2.656.635L13.218,9.134,3.357,13.5c-.3.158-2.03,1.148-1.292,2.825a1.711,1.711,0,0,0,1.679,1.063A3.714,3.714,0,0,0,5.115,17.1l11.65-3.453a3.051,3.051,0,0,1,3.586-1.67c2.062.506,6.946,1.681,6.946,1.681l-.439,1.823S21.968,14.3,19.9,13.8a1.21,1.21,0,0,0-1.538.871q-.007.026-.016.051a1.706,1.706,0,0,0,1.122,2.226l2.955,1.187,1.457.586.009,0a30.619,30.619,0,0,0,3.371,1.224,5.309,5.309,0,0,0,1.226.169l.09,0Zm16.241-3.375a.636.636,0,0,0,.578.371.625.625,0,0,0,.263-.059l2.888-1.324a.7.7,0,0,0,.345-.93L43.155,2.284a.7.7,0,0,0-.638-.409.684.684,0,0,0-.291.065L39.338,3.263a.635.635,0,0,0-.312.841l.663,1.447v0l.086.187Z" transform="translate(52.664 0)" fill="#051c2c"/>
    </g>
    <g id="Group_32926" data-name="Group 32926" transform="translate(1226.184 1337.86)">
      <path id="Path_36914" data-name="Path 36914" d="M226.376,218.854a4.916,4.916,0,0,1-4.12-2.115.938.938,0,0,1,1.6-.983,3.044,3.044,0,0,0,2.523,1.223c1.714,0,2.336-.956,2.336-1.6,0-.664-.134-1.347-1.736-1.769-2.731-.719-4.3-2.072-4.3-3.711a3.707,3.707,0,0,1,3.85-3.429,5.51,5.51,0,0,1,3.612,1.587.938.938,0,0,1-1.348,1.3,3.629,3.629,0,0,0-2.264-1.016,1.843,1.843,0,0,0-1.975,1.554c0,.563,1,1.4,2.9,1.9,2.109.556,3.134,1.727,3.134,3.582C230.587,217.065,229.111,218.854,226.376,218.854Z" transform="translate(-222.117 -204.523)" fill="#7fc200"/>
      <g id="Group_32923" data-name="Group 32923" transform="translate(3.298)">
        <path id="Line_604" data-name="Line 604" d="M-6.562-4.213A.938.938,0,0,1-7.5-5.15V-6.562A.938.938,0,0,1-6.562-7.5a.938.938,0,0,1,.938.938V-5.15A.938.938,0,0,1-6.562-4.213Z" transform="translate(7.5 7.5)" fill="#7fc200"/>
        <path id="Line_605" data-name="Line 605" d="M-6.562-4.213A.938.938,0,0,1-7.5-5.15V-6.562A.938.938,0,0,1-6.562-7.5a.938.938,0,0,1,.938.938V-5.15A.938.938,0,0,1-6.562-4.213Z" transform="translate(7.5 20.494)" fill="#7fc200"/>
      </g>
    </g>
  </g>
</svg>
