<svg xmlns="http://www.w3.org/2000/svg" width="55.258" height="64.503" viewBox="0 0 55.258 64.503">
  <g id="Group_33074" data-name="Group 33074" transform="translate(-814.75 -1143.75)">
    <g id="message-question-service-help-support" transform="translate(810 1142)">
      <path id="Path_36881" data-name="Path 36881" d="M50,35.1a1.034,1.034,0,0,1-.672-.249l-6.951-5.957h-17.2A5.178,5.178,0,0,1,20,23.722V7.172A5.178,5.178,0,0,1,25.172,2H54.135a5.178,5.178,0,0,1,5.172,5.172v16.55a5.178,5.178,0,0,1-5.172,5.172h-3.1v5.172A1.034,1.034,0,0,1,50,35.1ZM25.172,4.069a3.1,3.1,0,0,0-3.1,3.1v16.55a3.1,3.1,0,0,0,3.1,3.1H42.757a1.028,1.028,0,0,1,.672.249l5.534,4.743V27.86A1.034,1.034,0,0,1,50,26.825h4.138a3.1,3.1,0,0,0,3.1-3.1V7.172a3.1,3.1,0,0,0-3.1-3.1Z" transform="translate(0.451 0)" fill="#051c2c"/>
      <path id="Path_36881_-_Outline" data-name="Path 36881 - Outline" d="M50,35.35h0a1.285,1.285,0,0,1-.835-.31l-6.881-5.9H25.172a5.437,5.437,0,0,1-5.422-5.422V7.172A5.437,5.437,0,0,1,25.172,1.75H54.135a5.437,5.437,0,0,1,5.422,5.422v16.55a5.437,5.437,0,0,1-5.422,5.422H51.282v4.922A1.286,1.286,0,0,1,50,35.35ZM25.172,2.25A4.936,4.936,0,0,0,20.25,7.172v16.55a4.936,4.936,0,0,0,4.922,4.922H42.466l7.021,6.017a.784.784,0,0,0,1.294-.6V28.644h3.353a4.936,4.936,0,0,0,4.922-4.922V7.172A4.936,4.936,0,0,0,54.134,2.25ZM49.213,32.361l-5.947-5.1a.779.779,0,0,0-.509-.189v0H25.172a3.357,3.357,0,0,1-3.353-3.353V7.172a3.357,3.357,0,0,1,3.353-3.353H54.135a3.353,3.353,0,0,1,3.353,3.353v16.55a3.357,3.357,0,0,1-3.353,3.353H50a.785.785,0,0,0-.784.784ZM25.172,4.319a2.856,2.856,0,0,0-2.853,2.853v16.55a2.856,2.856,0,0,0,2.853,2.853H42.758a1.279,1.279,0,0,1,.834.31l5.121,4.389V27.86A1.286,1.286,0,0,1,50,26.575h4.138a2.856,2.856,0,0,0,2.853-2.853V7.172a2.853,2.853,0,0,0-2.853-2.853Z" transform="translate(0.451 0)" fill="#f7f9fb"/>
      <path id="Path_36882" data-name="Path 36882" d="M39.034,22.068a1.024,1.024,0,1,1,.734-.3A1.086,1.086,0,0,1,39.034,22.068Z" transform="translate(1.071 0.62)" fill="#051c2c"/>
      <path id="Path_36882_-_Outline" data-name="Path 36882 - Outline" d="M39.034,22.318h0a1.274,1.274,0,1,1,.914-.373l0,0a1.332,1.332,0,0,1-.9.369Zm.009-2.048a.774.774,0,0,0-.01,1.548.833.833,0,0,0,.56-.229.774.774,0,0,0-.55-1.319Z" transform="translate(1.071 0.62)" fill="#f7f9fb"/>
      <path id="Path_36883" data-name="Path 36883" d="M39.138,19.378A1.034,1.034,0,0,1,38.1,18.344V16.092a2.017,2.017,0,0,1,1.559-1.952,2.069,2.069,0,0,0,1.51-2.386A2.094,2.094,0,0,0,39.517,10.1a2.069,2.069,0,0,0-2.448,2.039,1.034,1.034,0,1,1-2.069,0,4.138,4.138,0,1,1,5.183,4l-.011,2.2A1.034,1.034,0,0,1,39.138,19.378Z" transform="translate(0.967 0.206)" fill="#051c2c"/>
      <path id="Path_36883_-_Outline" data-name="Path 36883 - Outline" d="M39.138,19.628a1.286,1.286,0,0,1-1.284-1.284V16.092A2.26,2.26,0,0,1,39.6,13.9a1.822,1.822,0,1,0-2.283-1.761,1.284,1.284,0,1,1-2.569,0,4.387,4.387,0,0,1,4.014-4.371c.125-.011.252-.016.377-.016a4.388,4.388,0,0,1,1.292,8.58l-.01,2.015A1.286,1.286,0,0,1,39.138,19.628Zm0-9.815a2.322,2.322,0,0,1,.588,4.568l-.006,0a1.762,1.762,0,0,0-1.366,1.71v2.25a.784.784,0,0,0,1.569,0l.012-2.4.186-.049a3.888,3.888,0,0,0-.98-7.649c-.111,0-.223,0-.334.014a3.887,3.887,0,0,0-3.556,3.873.784.784,0,1,0,1.569,0,2.319,2.319,0,0,1,2.319-2.324Z" transform="translate(0.967 0.206)" fill="#f7f9fb"/>
      <path id="Path_36884" data-name="Path 36884" d="M15.309,63.1a1.034,1.034,0,0,1-1.034-1.034V56.894h-3.1A5.178,5.178,0,0,1,6,51.722V35.172A5.178,5.178,0,0,1,11.172,30H40.135a5.178,5.178,0,0,1,5.172,5.172v16.55a5.178,5.178,0,0,1-5.172,5.172h-17.2l-6.95,5.957A1.034,1.034,0,0,1,15.309,63.1ZM11.172,32.069a3.1,3.1,0,0,0-3.1,3.1v16.55a3.1,3.1,0,0,0,3.1,3.1h4.138a1.034,1.034,0,0,1,1.034,1.034v3.958l5.533-4.743a1.034,1.034,0,0,1,.673-.249H40.135a3.1,3.1,0,0,0,3.1-3.1V35.172a3.1,3.1,0,0,0-3.1-3.1Z" transform="translate(-1 2.902)" fill="#7fc200"/>
      <path id="Path_36884_-_Outline" data-name="Path 36884 - Outline" d="M15.31,63.35h0a1.286,1.286,0,0,1-1.284-1.284V57.144H11.172A5.437,5.437,0,0,1,5.75,51.722V35.172a5.437,5.437,0,0,1,5.422-5.422H40.135a5.437,5.437,0,0,1,5.422,5.422v16.55a5.437,5.437,0,0,1-5.422,5.422H23.025l-6.88,5.9A1.285,1.285,0,0,1,15.31,63.35Zm-4.138-33.1A4.936,4.936,0,0,0,6.25,35.172v16.55a4.936,4.936,0,0,0,4.922,4.922h3.353v5.422a.784.784,0,0,0,1.295.6l7.02-6.017H40.135a4.936,4.936,0,0,0,4.922-4.922V35.172a4.936,4.936,0,0,0-4.922-4.922Zm4.922,30.111v-4.5a.785.785,0,0,0-.784-.784H11.172a3.357,3.357,0,0,1-3.353-3.353V35.172a3.357,3.357,0,0,1,3.353-3.353H40.135a3.357,3.357,0,0,1,3.353,3.353v16.55a3.357,3.357,0,0,1-3.353,3.353H22.55a.785.785,0,0,0-.511.189ZM11.172,32.319a2.856,2.856,0,0,0-2.853,2.853v16.55a2.856,2.856,0,0,0,2.853,2.853h4.138a1.286,1.286,0,0,1,1.284,1.284v3.414l5.12-4.389a1.285,1.285,0,0,1,.836-.309H40.135a2.856,2.856,0,0,0,2.853-2.853V35.172a2.856,2.856,0,0,0-2.853-2.853Z" transform="translate(-1 2.902)" fill="#f7f9fb"/>
      <path id="Path_36885" data-name="Path 36885" d="M15.1,38.069H13.034a1.034,1.034,0,1,1,0-2.069H15.1a1.034,1.034,0,1,1,0,2.069Z" transform="translate(-0.794 6.109)" fill="#7fc200"/>
      <path id="Path_36885_-_Outline" data-name="Path 36885 - Outline" d="M15.1,38.319H13.034a1.284,1.284,0,0,1,0-2.569H15.1a1.284,1.284,0,0,1,0,2.569ZM13.034,36.25a.784.784,0,0,0,0,1.569H15.1a.784.784,0,0,0,0-1.569Z" transform="translate(-0.794 6.109)" fill="#f7f9fb"/>
      <path id="Path_36886" data-name="Path 36886" d="M37.653,38.069H19.034a1.034,1.034,0,1,1,0-2.069H37.653a1.034,1.034,0,1,1,0,2.069Z" transform="translate(-0.587 6.109)" fill="#7fc200"/>
      <path id="Path_36886_-_Outline" data-name="Path 36886 - Outline" d="M37.653,38.319H19.034a1.284,1.284,0,0,1,0-2.569H37.653a1.284,1.284,0,0,1,0,2.569ZM19.034,36.25a.784.784,0,1,0,0,1.569H37.653a.784.784,0,0,0,0-1.569Z" transform="translate(-0.587 6.109)" fill="#f7f9fb"/>
      <path id="Path_36891" data-name="Path 36891" d="M15.1,50.069H13.034a1.034,1.034,0,1,1,0-2.069H15.1a1.034,1.034,0,0,1,0,2.069Z" transform="translate(-0.794 0.521)" fill="#7fc200"/>
      <path id="Path_36891_-_Outline" data-name="Path 36891 - Outline" d="M15.1,50.319H13.034a1.284,1.284,0,0,1,0-2.569H15.1a1.284,1.284,0,0,1,0,2.569ZM13.034,48.25a.784.784,0,0,0,0,1.569H15.1a.784.784,0,0,0,0-1.569Z" transform="translate(-0.794 0.521)" fill="#f7f9fb"/>
      <path id="Path_36892" data-name="Path 36892" d="M37.653,50.069H19.034a1.034,1.034,0,0,1,0-2.069H37.653a1.034,1.034,0,0,1,0,2.069Z" transform="translate(-0.587 0.521)" fill="#7fc200"/>
      <path id="Path_36892_-_Outline" data-name="Path 36892 - Outline" d="M37.653,50.319H19.034a1.284,1.284,0,0,1,0-2.569H37.653a1.284,1.284,0,1,1,0,2.569ZM19.034,48.25a.784.784,0,0,0,0,1.569H37.653a.784.784,0,1,0,0-1.569Z" transform="translate(-0.587 0.521)" fill="#f7f9fb"/>
    </g>
  </g>
</svg>
