<svg xmlns="http://www.w3.org/2000/svg" width="60.019" height="60.018" viewBox="0 0 60.019 60.018">
  <g id="Group_33075" data-name="Group 33075" transform="translate(-426 -1316)">
    <g id="Page-1" transform="translate(425.996 1316.017)">
      <g id="_021---QA-Tester" data-name="021---QA-Tester" transform="translate(0 -1)">
        <path id="Shape" d="M22,50a5,5,0,1,0-5-5A5,5,0,0,0,22,50Zm0-8a3,3,0,1,1-3,3A3,3,0,0,1,22,42Z" fill="#051c2c"/>
        <path id="Shape-2" data-name="Shape" d="M46,33a14.013,14.013,0,0,0-2.812.284,5,5,0,0,0-3.233-2.18A11.009,11.009,0,0,0,29,21h-.7a11,11,0,1,0-12.6,0H15A11.008,11.008,0,0,0,4.046,31.1,4.988,4.988,0,0,0,.071,36.811L3,56.077V58a3,3,0,0,0,3,3H38a2.983,2.983,0,0,0,2.376-1.189A14,14,0,1,0,46,33ZM13,12a9,9,0,1,1,9,9A9,9,0,0,1,13,12Zm2,11H29a9.013,9.013,0,0,1,8.945,8H6.055A9.013,9.013,0,0,1,15,23ZM2.713,34.061A2.992,2.992,0,0,1,5,33H39a2.993,2.993,0,0,1,2.122.894A13.961,13.961,0,0,0,34.527,55H4.859L2.046,36.494a2.992,2.992,0,0,1,.667-2.433ZM38,59H6a1,1,0,0,1-1-1V57H36.221a14.064,14.064,0,0,0,2.321,1.827A.978.978,0,0,1,38,59Zm8,0A12,12,0,1,1,58,47,12,12,0,0,1,46,59Z" fill="#051c2c"/>
        <path id="Shape-3" data-name="Shape" d="M52.293,42.293,43,51.586l-3.293-3.293a1,1,0,0,0-1.414,1.414l4,4a1,1,0,0,0,1.414,0l10-10a1,1,0,0,0-1.414-1.414Z" fill="#7fc200"/>
      </g>
    </g>
  </g>
</svg>
