<svg xmlns="http://www.w3.org/2000/svg" width="64" height="64.038" viewBox="0 0 64 64.038">
  <g id="Processing" transform="translate(0.02 0.083)">
    <path id="Path_36875" data-name="Path 36875" d="M36.33,54.425a1.337,1.337,0,0,0,1.333,1.333h4.865a1.337,1.337,0,0,0,1.333-1.333V52.159c.666-.2,1.4-.533,2.066-.8l1.6,1.6a1.368,1.368,0,0,0,1.933,0l3.4-3.4a1.359,1.359,0,0,0,0-1.933l-1.6-1.666c.333-.666.6-1.333.866-2h2.266a1.337,1.337,0,0,0,1.333-1.333V37.763a1.337,1.337,0,0,0-1.333-1.333l-2.266-.067a12.51,12.51,0,0,0-.8-2l1.6-1.6a1.368,1.368,0,0,0,0-1.933l-3.4-3.4a1.368,1.368,0,0,0-1.933,0l-1.666,1.6c-.666-.333-1.333-.6-2-.866V25.833A1.337,1.337,0,0,0,42.6,24.5H37.73A1.337,1.337,0,0,0,36.4,25.833v2.333c-.666.2-1.4.533-2.066.8l-1.6-1.6a1.359,1.359,0,0,0-1.933,0l-3.4,3.4a1.368,1.368,0,0,0,0,1.933s-.133-.133,1.6,1.666c-.333.666-.6,1.333-.866,2H25.8A1.443,1.443,0,0,0,24.4,37.7v4.8a1.353,1.353,0,0,0,1.4,1.333l2.333.133a13.182,13.182,0,0,0,.8,2.066l-1.6,1.6a1.359,1.359,0,0,0,0,1.933l3.4,3.4a1.368,1.368,0,0,0,1.933,0l1.666-1.6c.666.333,1.333.6,2,.866Zm-1.4-4.266a1.418,1.418,0,0,0-1.6.267l-1.666,1.6-3.4-3.466,1.6-1.6a1.321,1.321,0,0,0,.2-1.666,14.5,14.5,0,0,1-.733-1.8,1.3,1.3,0,0,0-1.266-.933H25.733l.067-4.8h2.333A1.3,1.3,0,0,0,29.4,36.83a10.215,10.215,0,0,1,.733-1.8,1.316,1.316,0,0,0-.267-1.6l-1.6-1.666,3.466-3.4,1.6,1.6a1.418,1.418,0,0,0,1.6.267,14.5,14.5,0,0,1,1.8-.733,1.283,1.283,0,0,0,.933-1.333V25.833h4.865v2.333a1.45,1.45,0,0,0,.933,1.333c.6.2,1.2.467,1.8.733a1.316,1.316,0,0,0,1.6-.267l1.666-1.6,3.4,3.466-1.6,1.6a1.3,1.3,0,0,0-.133,1.6c.267.6.533,1.2.733,1.8a1.3,1.3,0,0,0,1.266.933h2.333v4.8H52.192a1.3,1.3,0,0,0-1.266.933,9.055,9.055,0,0,1-.733,1.866,1.316,1.316,0,0,0,.267,1.6l1.6,1.666-3.466,3.4-1.6-1.6a1.418,1.418,0,0,0-1.6-.267,14.5,14.5,0,0,1-1.8.733,1.283,1.283,0,0,0-.933,1.333v2.333H37.8v-2.4a1.45,1.45,0,0,0-.933-1.333A13.088,13.088,0,0,1,34.93,50.16Z" transform="translate(-8.139 -8.193)" fill="#7fc200"/>
    <path id="Path_36876" data-name="Path 36876" d="M51.33,44.665a6.665,6.665,0,1,0-6.665,6.665A6.684,6.684,0,0,0,51.33,44.665Zm-12,0A5.332,5.332,0,1,1,44.665,50,5.348,5.348,0,0,1,39.333,44.665Z" transform="translate(-12.674 -12.695)" fill="#7fc200"/>
    <path id="Path_36877" data-name="Path 36877" d="M70.531,61.495c.067,0-.6.267-3.266,1.266a.675.675,0,0,0,.467,1.266l1.733-.733A26.4,26.4,0,0,1,50.336,78.357a5.021,5.021,0,1,0-3.8,6A5.043,5.043,0,0,0,50.47,79.69a27.887,27.887,0,0,0,20.261-15.8l.666,1.733a.693.693,0,0,0,.866.4.621.621,0,0,0,.4-.8c-1.666-4.132-1.333-3.732-2.133-3.732ZM45.471,83.156a3.633,3.633,0,1,1,3.6-3.6A3.582,3.582,0,0,1,45.471,83.156Z" transform="translate(-13.475 -20.522)" fill="#051c2c"/>
    <path id="Path_36878" data-name="Path 36878" d="M8.545,22.633a.547.547,0,0,0,.333.333c.733,0-.533.4,3.732-1.266a.693.693,0,0,0,.4-.866.714.714,0,0,0-.866-.4l-1.733.666A26.4,26.4,0,0,1,29.54,6.037a5.021,5.021,0,0,0,9.8-2.2,4.989,4.989,0,0,0-6-3.8A5.043,5.043,0,0,0,29.406,4.7,28.02,28.02,0,0,0,9.212,20.567l-.666-1.733a.667.667,0,0,0-.866-.4.693.693,0,0,0-.4.866ZM34.405,1.305a3.666,3.666,0,1,1-3.666,3.666A3.788,3.788,0,0,1,34.405,1.305Z" transform="translate(-2.42)" fill="#051c2c"/>
    <path id="Path_36879" data-name="Path 36879" d="M23.054,70.652c.067-.267.067,0-1.266-3.532a.675.675,0,1,0-1.266.467l.666,1.8A26.156,26.156,0,0,1,6.125,50.257a5,5,0,1,0-2.266-9.731,5,5,0,0,0,.933,9.864,27.887,27.887,0,0,0,15.8,20.261l-1.733.666a.693.693,0,0,0-.4.866.716.716,0,0,0,.8.4c3.532-1.333,3.132-1.266,3.266-1.266a.8.8,0,0,0,.333-.333v-.067C22.987,70.852,23.054,70.785,23.054,70.652ZM4.592,49.058a3.621,3.621,0,1,1,4-3.2A3.544,3.544,0,0,1,4.592,49.058Z" transform="translate(0 -13.483)" fill="#051c2c"/>
    <path id="Path_36880" data-name="Path 36880" d="M79.728,29.473a28.044,28.044,0,0,0-15.8-20.261l1.733-.666a.693.693,0,0,0,.4-.866.621.621,0,0,0-.8-.4c-3.532,1.4-3.4,1.266-3.6,1.533-.067.067-.067.067-.067.133v.467l1.266,3.266a.675.675,0,0,0,1.266-.467c-.067-.133.2.533-.733-1.733a26.239,26.239,0,0,1,15,19.062,5,5,0,0,0-3.732,6,5,5,0,1,0,5.065-6.065ZM79.528,38a3.641,3.641,0,0,1-3.6-3.666,3.7,3.7,0,0,1,2.733-3.532,3.645,3.645,0,0,1,4.532,3.932A3.835,3.835,0,0,1,79.528,38Z" transform="translate(-20.54 -2.441)" fill="#051c2c"/>
  </g>
</svg>
