<svg xmlns="http://www.w3.org/2000/svg" width="51.733" height="64.567" viewBox="0 0 51.733 64.567">
  <g id="Group_33073" data-name="Group 33073" transform="translate(-815.749 -1314.683)">
    <g id="employee" transform="translate(809.609 1314.999)">
      <path id="Union_14" data-name="Union 14" d="M25.21,63.921C24.18,63.451,0,52.471,0,38.4V9.579a.945.945,0,0,1,.29-.69.943.943,0,0,1,.7-.28c.26.01.51.01.77.01A35.049,35.049,0,0,0,24.94.278a.972.972,0,0,1,1.36,0,35.1,35.1,0,0,0,23.941,8.33.974.974,0,0,1,.7.28.946.946,0,0,1,.291.69V38.4c0,14.071-24.191,25.051-25.222,25.511a.961.961,0,0,1-.4.09A1.134,1.134,0,0,1,25.21,63.921ZM1.94,10.559V38.4c0,11.9,20.541,22.071,23.671,23.56,3.13-1.48,23.671-11.66,23.671-23.56V10.559A37.033,37.033,0,0,1,25.61,2.279,37.1,37.1,0,0,1,1.94,10.559Z" transform="translate(6.391 0.001)" fill="#051c2c" stroke="#f7f9fb" stroke-width="0.5"/>
    </g>
    <g id="Group_32925" data-name="Group 32925" transform="translate(829.252 1332.427)">
      <path id="Union_13" data-name="Union 13" d="M18.883,25.334H5.831a1,1,0,0,1-.235.028.98.98,0,0,1-.233-.028H.969A.962.962,0,0,1,0,24.364,12.379,12.379,0,0,1,8.35,12.671a6.972,6.972,0,1,1,8.015,0,12.38,12.38,0,0,1,8.354,11.693.972.972,0,0,1-.969.97h-4.4a.991.991,0,0,1-.469,0Zm3.846-1.939a10.422,10.422,0,0,0-20.754,0H4.6V22.144a1,1,0,1,1,2,0v1.251H18.115V22.144a1,1,0,1,1,2,0v1.251ZM7.327,6.964A5.031,5.031,0,1,0,12.358,1.93,5.041,5.041,0,0,0,7.327,6.964Z" transform="translate(0)" fill="#7fc200" stroke="#f7f9fb" stroke-width="0.5"/>
    </g>
  </g>
</svg>
